{
  "accessors": [
    {
      "bufferView": 2,
      "componentType": 5126,
      "count": 297,
      "max": [
        0.5780717134475708,
        0.59265035390853882,
        1.3993768692016602
      ],
      "min": [
        -0.60722923278808594,
        -0.59265059232711792,
        -2.6179659366607666
      ],
      "type": "VEC3"
    },
    {
      "bufferView": 2,
      "byteOffset": 3564,
      "componentType": 5126,
      "count": 297,
      "max": [
        1,
        1,
        0.72537219524383545
      ],
      "min": [
        -1,
        -1,
        -0.99908506870269775
      ],
      "type": "VEC3"
    },
    {
      "bufferView": 3,
      "componentType": 5126,
      "count": 297,
      "max": [
        0.85922187566757202,
        0.98253738880157471,
        1,
        1
      ],
      "min": [
        -0.99986505508422852,
        -0.86202448606491089,
        -0.99991941452026367,
        1
      ],
      "type": "VEC4"
    },
    {
      "bufferView": 1,
      "componentType": 5126,
      "count": 297,
      "max": [
        0.97342514991760254,
        0.89462041854858398
      ],
      "min": [
        0.0014162100851535797,
        0.001418769359588623
      ],
      "type": "VEC2"
    },
    {
      "bufferView": 0,
      "componentType": 5125,
      "count": 1386,
      "max": [
        296
      ],
      "min": [
        0
      ],
      "type": "SCALAR"
    },
    {
      "bufferView": 2,
      "byteOffset": 7128,
      "componentType": 5126,
      "count": 464,
      "max": [
        0.22246137261390686,
        0.23703999817371368,
        2.1862244606018066
      ],
      "min": [
        -0.25161871314048767,
        -0.23704010248184204,
        1.3457255363464355
      ],
      "type": "VEC3"
    },
    {
      "bufferView": 2,
      "byteOffset": 12696,
      "componentType": 5126,
      "count": 464,
      "max": [
        0.99906319379806519,
        0.99906319379806519,
        0.99986362457275391
      ],
      "min": [
        -0.99906325340270996,
        -0.99906325340270996,
        -0.73389363288879395
      ],
      "type": "VEC3"
    },
    {
      "bufferView": 3,
      "byteOffset": 4752,
      "componentType": 5126,
      "count": 464,
      "max": [
        0.99994850158691406,
        0.99997997283935547,
        0.99906080961227417,
        1
      ],
      "min": [
        -0.99997544288635254,
        -0.99944978952407837,
        -0.99313986301422119,
        1
      ],
      "type": "VEC4"
    },
    {
      "bufferView": 1,
      "byteOffset": 2376,
      "componentType": 5126,
      "count": 464,
      "max": [
        0.99821394681930542,
        0.99810254573822021
      ],
      "min": [
        0.001417775871232152,
        0.0013686865568161011
      ],
      "type": "VEC2"
    },
    {
      "bufferView": 0,
      "byteOffset": 5544,
      "componentType": 5125,
      "count": 714,
      "max": [
        463
      ],
      "min": [
        0
      ],
      "type": "SCALAR"
    },
    {
      "bufferView": 2,
      "byteOffset": 18264,
      "componentType": 5126,
      "count": 42,
      "max": [
        0.5812457799911499,
        0.54753768444061279,
        -0.89408785104751587
      ],
      "min": [
        -0.6122666597366333,
        -0.54753756523132324,
        -2.3001115322113037
      ],
      "type": "VEC3"
    },
    {
      "bufferView": 2,
      "byteOffset": 18768,
      "componentType": 5126,
      "count": 42,
      "max": [
        1,
        0.83147042989730835,
        0
      ],
      "min": [
        -1,
        -0.83146864175796509,
        0
      ],
      "type": "VEC3"
    },
    {
      "bufferView": 3,
      "byteOffset": 12176,
      "componentType": 5126,
      "count": 42,
      "max": [
        0.83147048950195312,
        1,
        1,
        1
      ],
      "min": [
        -0.83146864175796509,
        -2.1359771551487938e-07,
        -1,
        1
      ],
      "type": "VEC4"
    },
    {
      "bufferView": 1,
      "byteOffset": 6088,
      "componentType": 5126,
      "count": 42,
      "max": [
        0.72236412763595581,
        0.56886816024780273
      ],
      "min": [
        0.0014214443508535624,
        0.0014160159043967724
      ],
      "type": "VEC2"
    },
    {
      "bufferView": 0,
      "byteOffset": 8400,
      "componentType": 5125,
      "count": 108,
      "max": [
        41
      ],
      "min": [
        0
      ],
      "type": "SCALAR"
    }
  ],
  "asset": {
    "extras": {
      "author": "Batuhan13 (https://sketchfab.com/Batuhan13)",
      "license": "CC-BY-4.0 (http://creativecommons.org/licenses/by/4.0/)",
      "source": "https://sketchfab.com/3d-models/wine-bottle-b0ed331c418d4959a3f050ce88f47346",
      "title": "Wine bottle"
    },
    "generator": "Sketchfab-6.71.0",
    "version": "2.0"
  },
  "bufferViews": [
    {
      "buffer": 0,
      "byteLength": 8832,
      "byteOffset": 0,
      "name": "floatBufferViews",
      "target": 34963
    },
    {
      "buffer": 0,
      "byteLength": 6424,
      "byteOffset": 8832,
      "byteStride": 8,
      "name": "floatBufferViews",
      "target": 34962
    },
    {
      "buffer": 0,
      "byteLength": 19272,
      "byteOffset": 15256,
      "byteStride": 12,
      "name": "floatBufferViews",
      "target": 34962
    },
    {
      "buffer": 0,
      "byteLength": 12848,
      "byteOffset": 34528,
      "byteStride": 16,
      "name": "floatBufferViews",
      "target": 34962
    }
  ],
  "buffers": [
    {
      "byteLength": 47376,
      "uri": "scene.bin"
    }
  ],
  "images": [
    {
      "uri": "textures/Glass_baseColor.png"
    },
    {
      "uri": "textures/Glass_metallicRoughness.png"
    },
    {
      "uri": "textures/Glass_normal.png"
    },
    {
      "uri": "textures/RedPaper_baseColor.png"
    },
    {
      "uri": "textures/RedPaper_metallicRoughness.png"
    },
    {
      "uri": "textures/RedPaper_normal.png"
    },
    {
      "uri": "textures/Paper_baseColor.png"
    },
    {
      "uri": "textures/Paper_metallicRoughness.png"
    },
    {
      "uri": "textures/Paper_normal.png"
    }
  ],
  "materials": [
    {
      "alphaMode": "BLEND",
      "doubleSided": true,
      "name": "Glass",
      "normalTexture": {
        "index": 2,
        "scale": 1,
        "texCoord": 0
      },
      "pbrMetallicRoughness": {
        "baseColorFactor": [
          1,
          1,
          1,
          1
        ],
        "baseColorTexture": {
          "index": 0,
          "texCoord": 0
        },
        "metallicFactor": 1,
        "metallicRoughnessTexture": {
          "index": 1,
          "texCoord": 0
        },
        "roughnessFactor": 0.12893940318714489
      }
    },
    {
      "doubleSided": true,
      "emissiveFactor": [
        0,
        0,
        0
      ],
      "name": "RedPaper",
      "normalTexture": {
        "index": 5,
        "scale": 1,
        "texCoord": 0
      },
      "pbrMetallicRoughness": {
        "baseColorFactor": [
          0.70469697894472061,
          0.70469697894472061,
          0.70469697894472061,
          1
        ],
        "baseColorTexture": {
          "index": 3,
          "texCoord": 0
        },
        "metallicFactor": 0.68651516076290242,
        "metallicRoughnessTexture": {
          "index": 4,
          "texCoord": 0
        },
        "roughnessFactor": 0.31681819106593279
      }
    },
    {
      "alphaMode": "BLEND",
      "doubleSided": true,
      "emissiveFactor": [
        0,
        0,
        0
      ],
      "name": "Paper",
      "normalTexture": {
        "index": 8,
        "scale": 1,
        "texCoord": 0
      },
      "pbrMetallicRoughness": {
        "baseColorFactor": [
          1,
          1,
          1,
          1
        ],
        "baseColorTexture": {
          "index": 6,
          "texCoord": 0
        },
        "metallicFactor": 1,
        "metallicRoughnessTexture": {
          "index": 7,
          "texCoord": 0
        },
        "roughnessFactor": 1
      }
    }
  ],
  "meshes": [
    {
      "name": "Cylinder_Glass_0",
      "primitives": [
        {
          "attributes": {
            "NORMAL": 1,
            "POSITION": 0,
            "TANGENT": 2,
            "TEXCOORD_0": 3
          },
          "indices": 4,
          "material": 0,
          "mode": 4
        }
      ]
    },
    {
      "name": "Cylinder_RedPaper_0",
      "primitives": [
        {
          "attributes": {
            "NORMAL": 6,
            "POSITION": 5,
            "TANGENT": 7,
            "TEXCOORD_0": 8
          },
          "indices": 9,
          "material": 1,
          "mode": 4
        }
      ]
    },
    {
      "name": "Cylinder_Paper_0",
      "primitives": [
        {
          "attributes": {
            "NORMAL": 11,
            "POSITION": 10,
            "TANGENT": 12,
            "TEXCOORD_0": 13
          },
          "indices": 14,
          "material": 2,
          "mode": 4
        }
      ]
    }
  ],
  "nodes": [
    {
      "children": [
        1
      ],
      "name": "RootNode (gltf orientation matrix)",
      "rotation": [
        -0.70710678118654746,
        -0,
        -0,
        0.70710678118654757
      ]
    },
    {
      "children": [
        2
      ],
      "name": "RootNode (model correction matrix)"
    },
    {
      "children": [
        3
      ],
      "matrix": [
        1,
        0,
        0,
        0,
        0,
        0,
        1,
        0,
        0,
        -1,
        0,
        0,
        0,
        0,
        0,
        1
      ],
      "name": "Wine.fbx"
    },
    {
      "children": [
        4
      ],
      "name": "RootNode"
    },
    {
      "children": [
        5,
        6,
        7
      ],
      "matrix": [
        100,
        0,
        0,
        0,
        0,
        -1.6292067939183141e-05,
        -99.999999999998678,
        0,
        0,
        99.999999999998678,
        -1.6292067939183141e-05,
        0,
        248.99351501464844,
        24.697547912597656,
        288.89990234375,
        1
      ],
      "name": "Cylinder"
    },
    {
      "mesh": 0,
      "name": "Cylinder_Glass_0"
    },
    {
      "mesh": 1,
      "name": "Cylinder_RedPaper_0"
    },
    {
      "mesh": 2,
      "name": "Cylinder_Paper_0"
    }
  ],
  "samplers": [
    {
      "magFilter": 9729,
      "minFilter": 9987,
      "wrapS": 10497,
      "wrapT": 10497
    }
  ],
  "scene": 0,
  "scenes": [
    {
      "name": "OSG_Scene",
      "nodes": [
        0
      ]
    }
  ],
  "textures": [
    {
      "sampler": 0,
      "source": 0
    },
    {
      "sampler": 0,
      "source": 1
    },
    {
      "sampler": 0,
      "source": 2
    },
    {
      "sampler": 0,
      "source": 3
    },
    {
      "sampler": 0,
      "source": 4
    },
    {
      "sampler": 0,
      "source": 5
    },
    {
      "sampler": 0,
      "source": 6
    },
    {
      "sampler": 0,
      "source": 7
    },
    {
      "sampler": 0,
      "source": 8
    }
  ]
}

